<?xml version="1.0" encoding="UTF-8"?>
<svg width="26px" height="39px" viewBox="0 0 26 39" version="1.1" xmlns="http://www.w3.org/2000/svg" xmlns:xlink="http://www.w3.org/1999/xlink">
    <!-- Generator: Sketch 50.2 (55047) - http://www.bohemiancoding.com/sketch -->
    <title>Untitled</title>
    <desc>Created with Sketch.</desc>
    <defs></defs>
    <g id="Page-1" stroke="none" stroke-width="1" fill="none" fill-rule="evenodd">
        <g id="marker_default" fill-rule="nonzero">
            <path d="M13.27,1 C6.374,1 1,6.27 1,12.946 C1,19.927 13.27,38.69 13.27,38.69 C13.27,38.69 25.537,19.793 25.537,12.946 C25.537,6.28 20.264,1 13.27,1 M13.27,4.382 C18.284,4.382 22.064,8.064 22.064,12.946 C22.064,13.749 21.654,17.119 16.361,26.756 C15.3602428,28.5725266 14.3267407,30.3708202 13.261,32.15 C12.1994246,30.3858526 11.1705819,28.602214 10.175,26.8 C5.028,17.46 4.473,14 4.473,12.946 C4.473,10.616 5.373,8.453 7.006,6.859 C8.643,5.262 10.868,4.382 13.27,4.382" id="Shape" fill="#666666"></path>
            <path d="M12.265,35.392 C8.373,28.977 1.736,17.045 1.736,12.263 C1.736,6.36 6.363,1.736 12.27,1.736 C18.274,1.736 22.8,6.262 22.8,12.263 C22.8,16.953 16.157,28.941 12.265,35.393" id="Shape" fill="#FFFFFF"></path>
            <path d="M12.27,0 C5.374,0 0,5.41 0,12.264 C0,19.431 12.27,38.694 12.27,38.694 C12.27,38.694 24.537,19.294 24.537,12.264 C24.537,5.422 19.264,0 12.27,0 M12.27,3.473 C17.284,3.473 21.064,7.252 21.064,12.263 C21.064,13.088 20.654,16.548 15.361,26.441 C14.3606633,28.3052778 13.3271657,30.1515712 12.261,31.979 C11.1990097,30.1675955 10.1701717,28.3369572 9.175,26.488 C4.028,16.898 3.473,13.346 3.473,12.264 C3.473,9.871 4.373,7.652 6.006,6.015 C7.643,4.375 9.868,3.473 12.27,3.473" id="Shape" fill="#CF4497"></path>
        </g>
        <g id="users" transform="translate(5.178711, 5.812012)" fill="#000000" fill-rule="nonzero">
            <path d="M2.1,4.28571429 C2.8721875,4.28571429 3.5,3.64508929 3.5,2.85714286 C3.5,2.06919643 2.8721875,1.42857143 2.1,1.42857143 C1.3278125,1.42857143 0.7,2.06919643 0.7,2.85714286 C0.7,3.64508929 1.3278125,4.28571429 2.1,4.28571429 Z M11.9,4.28571429 C12.6721875,4.28571429 13.3,3.64508929 13.3,2.85714286 C13.3,2.06919643 12.6721875,1.42857143 11.9,1.42857143 C11.1278125,1.42857143 10.5,2.06919643 10.5,2.85714286 C10.5,3.64508929 11.1278125,4.28571429 11.9,4.28571429 Z M12.6,5 L11.2,5 C10.815,5 10.4671875,5.15848214 10.2134375,5.41517857 C11.095,5.90848214 11.720625,6.79910714 11.85625,7.85714286 L13.3,7.85714286 C13.6871875,7.85714286 14,7.53794643 14,7.14285714 L14,6.42857143 C14,5.640625 13.3721875,5 12.6,5 Z M7,5 C8.3540625,5 9.45,3.88169643 9.45,2.5 C9.45,1.11830357 8.3540625,0 7,0 C5.6459375,0 4.55,1.11830357 4.55,2.5 C4.55,3.88169643 5.6459375,5 7,5 Z M8.68,5.71428571 L8.4984375,5.71428571 C8.0434375,5.9375 7.538125,6.07142857 7,6.07142857 C6.461875,6.07142857 5.95875,5.9375 5.5015625,5.71428571 L5.32,5.71428571 C3.92875,5.71428571 2.8,6.86607143 2.8,8.28571429 L2.8,8.92857143 C2.8,9.52008929 3.2703125,10 3.85,10 L10.15,10 C10.7296875,10 11.2,9.52008929 11.2,8.92857143 L11.2,8.28571429 C11.2,6.86607143 10.07125,5.71428571 8.68,5.71428571 Z M3.7865625,5.41517857 C3.5328125,5.15848214 3.185,5 2.8,5 L1.4,5 C0.6278125,5 0,5.640625 0,6.42857143 L0,7.14285714 C0,7.53794643 0.3128125,7.85714286 0.7,7.85714286 L2.1415625,7.85714286 C2.279375,6.79910714 2.905,5.90848214 3.7865625,5.41517857 Z" id="Shape"></path>
        </g>
    </g>
</svg>