<?xml version="1.0" encoding="UTF-8"?>
<svg width="26px" height="39px" viewBox="0 0 26 39" version="1.1" xmlns="http://www.w3.org/2000/svg" xmlns:xlink="http://www.w3.org/1999/xlink">
    <!-- Generator: Sketch 50.2 (55047) - http://www.bohemiancoding.com/sketch -->
    <title>Untitled</title>
    <desc>Created with Sketch.</desc>
    <defs></defs>
    <g id="Page-1" stroke="none" stroke-width="1" fill="none" fill-rule="evenodd">
        <g id="marker_default" fill-rule="nonzero">
            <path d="M13.27,1 C6.374,1 1,6.27 1,12.946 C1,19.927 13.27,38.69 13.27,38.69 C13.27,38.69 25.537,19.793 25.537,12.946 C25.537,6.28 20.264,1 13.27,1 M13.27,4.382 C18.284,4.382 22.064,8.064 22.064,12.946 C22.064,13.749 21.654,17.119 16.361,26.756 C15.3602428,28.5725266 14.3267407,30.3708202 13.261,32.15 C12.1994246,30.3858526 11.1705819,28.602214 10.175,26.8 C5.028,17.46 4.473,14 4.473,12.946 C4.473,10.616 5.373,8.453 7.006,6.859 C8.643,5.262 10.868,4.382 13.27,4.382" id="Shape" fill="#666666"></path>
            <path d="M12.265,35.392 C8.373,28.977 1.736,17.045 1.736,12.263 C1.736,6.36 6.363,1.736 12.27,1.736 C18.274,1.736 22.8,6.262 22.8,12.263 C22.8,16.953 16.157,28.941 12.265,35.393" id="Shape" fill="#FFFFFF"></path>
            <path d="M12.27,0 C5.374,0 0,5.41 0,12.264 C0,19.431 12.27,38.694 12.27,38.694 C12.27,38.694 24.537,19.294 24.537,12.264 C24.537,5.422 19.264,0 12.27,0 M12.27,3.473 C17.284,3.473 21.064,7.252 21.064,12.263 C21.064,13.088 20.654,16.548 15.361,26.441 C14.3606633,28.3052778 13.3271657,30.1515712 12.261,31.979 C11.1990097,30.1675955 10.1701717,28.3369572 9.175,26.488 C4.028,16.898 3.473,13.346 3.473,12.264 C3.473,9.871 4.373,7.652 6.006,6.015 C7.643,4.375 9.868,3.473 12.27,3.473" id="Shape" fill="#73B638"></path>
        </g>
        <g id="film" transform="translate(5.532227, 7.149335)" fill="#000000" fill-rule="nonzero">
            <path d="M12.7273999,0 L12.518754,0 L12.518754,0.52161475 C12.518754,0.693747618 12.377918,0.834583601 12.2057852,0.834583601 L11.1625557,0.834583601 C10.9904228,0.834583601 10.8495868,0.693747618 10.8495868,0.52161475 L10.8495868,0 L2.5037508,0 L2.5037508,0.52161475 C2.5037508,0.693747618 2.36291482,0.834583601 2.19078195,0.834583601 L1.14755245,0.834583601 C0.975419583,0.834583601 0.834583601,0.693747618 0.834583601,0.52161475 L0.834583601,0 L0.6259377,0 C0.279063891,0 0,0.279063891 0,0.6259377 L0,9.38906551 C0,9.73593932 0.279063891,10.0150032 0.6259377,10.0150032 L0.834583601,10.0150032 L0.834583601,9.49338846 C0.834583601,9.32125559 0.975419583,9.18041961 1.14755245,9.18041961 L2.19078195,9.18041961 C2.36291482,9.18041961 2.5037508,9.32125559 2.5037508,9.49338846 L2.5037508,10.0150032 L10.8495868,10.0150032 L10.8495868,9.49338846 C10.8495868,9.32125559 10.9904228,9.18041961 11.1625557,9.18041961 L12.2057852,9.18041961 C12.377918,9.18041961 12.518754,9.32125559 12.518754,9.49338846 L12.518754,10.0150032 L12.7273999,10.0150032 C13.0742737,10.0150032 13.3533376,9.73593932 13.3533376,9.38906551 L13.3533376,0.6259377 C13.3533376,0.279063891 13.0742737,0 12.7273999,0 Z M2.5037508,8.03286716 C2.5037508,8.20500002 2.36291482,8.34583601 2.19078195,8.34583601 L1.14755245,8.34583601 C0.975419583,8.34583601 0.834583601,8.20500002 0.834583601,8.03286716 L0.834583601,6.98963766 C0.834583601,6.81750479 0.975419583,6.67666881 1.14755245,6.67666881 L2.19078195,6.67666881 C2.36291482,6.67666881 2.5037508,6.81750479 2.5037508,6.98963766 L2.5037508,8.03286716 Z M2.5037508,5.52911635 C2.5037508,5.70124922 2.36291482,5.8420852 2.19078195,5.8420852 L1.14755245,5.8420852 C0.975419583,5.8420852 0.834583601,5.70124922 0.834583601,5.52911635 L0.834583601,4.48588685 C0.834583601,4.31375399 0.975419583,4.172918 1.14755245,4.172918 L2.19078195,4.172918 C2.36291482,4.172918 2.5037508,4.31375399 2.5037508,4.48588685 L2.5037508,5.52911635 Z M2.5037508,3.02536555 C2.5037508,3.19749842 2.36291482,3.3383344 2.19078195,3.3383344 L1.14755245,3.3383344 C0.975419583,3.3383344 0.834583601,3.19749842 0.834583601,3.02536555 L0.834583601,1.98213605 C0.834583601,1.81000318 0.975419583,1.6691672 1.14755245,1.6691672 L2.19078195,1.6691672 C2.36291482,1.6691672 2.5037508,1.81000318 2.5037508,1.98213605 L2.5037508,3.02536555 Z M9.59771141,8.45015896 C9.59771141,8.62229182 9.45687542,8.76312781 9.28474256,8.76312781 L4.06859505,8.76312781 C3.89646219,8.76312781 3.7556262,8.62229182 3.7556262,8.45015896 L3.7556262,5.94640815 C3.7556262,5.77427529 3.89646219,5.6334393 4.06859505,5.6334393 L9.28474256,5.6334393 C9.45687542,5.6334393 9.59771141,5.77427529 9.59771141,5.94640815 L9.59771141,8.45015896 Z M9.59771141,4.06859505 C9.59771141,4.24072792 9.45687542,4.3815639 9.28474256,4.3815639 L4.06859505,4.3815639 C3.89646219,4.3815639 3.7556262,4.24072792 3.7556262,4.06859505 L3.7556262,1.56484425 C3.7556262,1.39271138 3.89646219,1.2518754 4.06859505,1.2518754 L9.28474256,1.2518754 C9.45687542,1.2518754 9.59771141,1.39271138 9.59771141,1.56484425 L9.59771141,4.06859505 Z M12.518754,8.03286716 C12.518754,8.20500002 12.377918,8.34583601 12.2057852,8.34583601 L11.1625557,8.34583601 C10.9904228,8.34583601 10.8495868,8.20500002 10.8495868,8.03286716 L10.8495868,6.98963766 C10.8495868,6.81750479 10.9904228,6.67666881 11.1625557,6.67666881 L12.2057852,6.67666881 C12.377918,6.67666881 12.518754,6.81750479 12.518754,6.98963766 L12.518754,8.03286716 Z M12.518754,5.52911635 C12.518754,5.70124922 12.377918,5.8420852 12.2057852,5.8420852 L11.1625557,5.8420852 C10.9904228,5.8420852 10.8495868,5.70124922 10.8495868,5.52911635 L10.8495868,4.48588685 C10.8495868,4.31375399 10.9904228,4.172918 11.1625557,4.172918 L12.2057852,4.172918 C12.377918,4.172918 12.518754,4.31375399 12.518754,4.48588685 L12.518754,5.52911635 Z M12.518754,3.02536555 C12.518754,3.19749842 12.377918,3.3383344 12.2057852,3.3383344 L11.1625557,3.3383344 C10.9904228,3.3383344 10.8495868,3.19749842 10.8495868,3.02536555 L10.8495868,1.98213605 C10.8495868,1.81000318 10.9904228,1.6691672 11.1625557,1.6691672 L12.2057852,1.6691672 C12.377918,1.6691672 12.518754,1.81000318 12.518754,1.98213605 L12.518754,3.02536555 Z" id="Shape"></path>
        </g>
    </g>
</svg>