<?xml version="1.0" encoding="UTF-8"?>
<svg width="26px" height="39px" viewBox="0 0 26 39" version="1.1" xmlns="http://www.w3.org/2000/svg" xmlns:xlink="http://www.w3.org/1999/xlink">
    <!-- Generator: Sketch 50.2 (55047) - http://www.bohemiancoding.com/sketch -->
    <title>Untitled</title>
    <desc>Created with Sketch.</desc>
    <defs></defs>
    <g id="Page-1" stroke="none" stroke-width="1" fill="none" fill-rule="evenodd">
        <g id="marker_default" fill-rule="nonzero">
            <path d="M13.27,1 C6.374,1 1,6.27 1,12.946 C1,19.927 13.27,38.69 13.27,38.69 C13.27,38.69 25.537,19.793 25.537,12.946 C25.537,6.28 20.264,1 13.27,1 M13.27,4.382 C18.284,4.382 22.064,8.064 22.064,12.946 C22.064,13.749 21.654,17.119 16.361,26.756 C15.3602428,28.5725266 14.3267407,30.3708202 13.261,32.15 C12.1994246,30.3858526 11.1705819,28.602214 10.175,26.8 C5.028,17.46 4.473,14 4.473,12.946 C4.473,10.616 5.373,8.453 7.006,6.859 C8.643,5.262 10.868,4.382 13.27,4.382" id="Shape" fill="#666666"></path>
            <path d="M12.265,35.392 C8.373,28.977 1.736,17.045 1.736,12.263 C1.736,6.36 6.363,1.736 12.27,1.736 C18.274,1.736 22.8,6.262 22.8,12.263 C22.8,16.953 16.157,28.941 12.265,35.393" id="Shape" fill="#FFFFFF"></path>
            <path d="M12.27,0 C5.374,0 0,5.41 0,12.264 C0,19.431 12.27,38.694 12.27,38.694 C12.27,38.694 24.537,19.294 24.537,12.264 C24.537,5.422 19.264,0 12.27,0 M12.27,3.473 C17.284,3.473 21.064,7.252 21.064,12.263 C21.064,13.088 20.654,16.548 15.361,26.441 C14.3606633,28.3052778 13.3271657,30.1515712 12.261,31.979 C11.1990097,30.1675955 10.1701717,28.3369572 9.175,26.488 C4.028,16.898 3.473,13.346 3.473,12.264 C3.473,9.871 4.373,7.652 6.006,6.015 C7.643,4.375 9.868,3.473 12.27,3.473" id="Shape" fill="#955DC7"></path>
            <g id="beer" transform="translate(7.210908, 6.347000)" fill="#000000">
                <path d="M10.3984581,1.80842749 L9.04213746,1.80842749 L9.04213746,0.678160309 C9.04213746,0.303618022 8.73851944,0 8.36397715,0 L0.678160309,0 C0.303618022,0 0,0.303618022 0,0.678160309 L0,11.9808321 C0,12.3553744 0.303618022,12.6589924 0.678160309,12.6589924 L8.36397715,12.6589924 C8.73851944,12.6589924 9.04213746,12.3553744 9.04213746,11.9808321 L9.04213746,10.7909434 L11.3197954,9.77435279 C12.1333052,9.41125446 12.6589924,8.60099418 12.6589924,7.71011758 L12.6589924,4.06896186 C12.6589924,2.82250321 11.6449167,1.80842749 10.3984581,1.80842749 Z M10.8505649,7.71011758 C10.8504368,7.88849275 10.745555,8.05015818 10.5827199,8.12297593 L9.04213746,8.81057397 L9.04213746,3.61685498 L10.3984581,3.61685498 C10.6477385,3.61685498 10.8505649,3.81968143 10.8505649,4.06896186 L10.8505649,7.71011758 Z M5.87738935,9.9463512 C5.62771333,9.9463512 5.42528247,9.74392035 5.42528247,9.49424433 L5.42528247,3.16474811 C5.42528247,2.91507209 5.62771333,2.71264124 5.87738935,2.71264124 C6.12706537,2.71264124 6.32949622,2.91507209 6.32949622,3.16474811 L6.32949622,9.49424433 C6.32949622,9.74392035 6.12706537,9.9463512 5.87738935,9.9463512 Z M3.16474811,9.9463512 C2.91507209,9.9463512 2.71264124,9.74392035 2.71264124,9.49424433 L2.71264124,3.16474811 C2.71264124,2.91507209 2.91507209,2.71264124 3.16474811,2.71264124 C3.41442413,2.71264124 3.61685498,2.91507209 3.61685498,3.16474811 L3.61685498,9.49424433 C3.61685498,9.74392035 3.41442413,9.9463512 3.16474811,9.9463512 Z" id="Shape"></path>
            </g>
        </g>
    </g>
</svg>