<?xml version="1.0" encoding="UTF-8"?>
<svg width="26px" height="39px" viewBox="0 0 26 39" version="1.1" xmlns="http://www.w3.org/2000/svg" xmlns:xlink="http://www.w3.org/1999/xlink">
    <!-- Generator: Sketch 50.2 (55047) - http://www.bohemiancoding.com/sketch -->
    <title>Untitled</title>
    <desc>Created with Sketch.</desc>
    <defs></defs>
    <g id="Page-1" stroke="none" stroke-width="1" fill="none" fill-rule="evenodd">
        <g id="marker_default" fill-rule="nonzero">
            <path d="M13.27,1 C6.374,1 1,6.27 1,12.946 C1,19.927 13.27,38.69 13.27,38.69 C13.27,38.69 25.537,19.793 25.537,12.946 C25.537,6.28 20.264,1 13.27,1 M13.27,4.382 C18.284,4.382 22.064,8.064 22.064,12.946 C22.064,13.749 21.654,17.119 16.361,26.756 C15.3602428,28.5725266 14.3267407,30.3708202 13.261,32.15 C12.1994246,30.3858526 11.1705819,28.602214 10.175,26.8 C5.028,17.46 4.473,14 4.473,12.946 C4.473,10.616 5.373,8.453 7.006,6.859 C8.643,5.262 10.868,4.382 13.27,4.382" id="Shape" fill="#666666"></path>
            <path d="M12.265,35.392 C8.373,28.977 1.736,17.045 1.736,12.263 C1.736,6.36 6.363,1.736 12.27,1.736 C18.274,1.736 22.8,6.262 22.8,12.263 C22.8,16.953 16.157,28.941 12.265,35.393" id="Shape" fill="#FFFFFF"></path>
            <path d="M12.27,0 C5.374,0 0,5.41 0,12.264 C0,19.431 12.27,38.694 12.27,38.694 C12.27,38.694 24.537,19.294 24.537,12.264 C24.537,5.422 19.264,0 12.27,0 M12.27,3.473 C17.284,3.473 21.064,7.252 21.064,12.263 C21.064,13.088 20.654,16.548 15.361,26.441 C14.3606633,28.3052778 13.3271657,30.1515712 12.261,31.979 C11.1990097,30.1675955 10.1701717,28.3369572 9.175,26.488 C4.028,16.898 3.473,13.346 3.473,12.264 C3.473,9.871 4.373,7.652 6.006,6.015 C7.643,4.375 9.868,3.473 12.27,3.473" id="Shape" fill="#50B96D"></path>
            <g id="cannabis" transform="translate(4.768500, 4.845000)" fill="#4F7533">
                <path d="M14.6574737,10.4671336 C14.6121476,10.4433084 13.716376,9.9763914 12.4266159,9.71721907 C14.2934121,7.5345929 14.868705,5.01986586 14.8942735,4.90451674 C14.9285587,4.74965256 14.8814892,4.58781512 14.7693362,4.47537152 C14.681299,4.38704373 14.5624632,4.33881211 14.4404314,4.33881211 C14.4073085,4.33881211 14.373895,4.34229874 14.3404815,4.34985309 C14.2277474,4.37455 11.826045,4.91904434 9.67479848,6.66729536 C9.67508903,6.62487477 9.67508903,6.58216364 9.67508903,6.5394525 C9.67508903,3.08798601 7.9323585,0.329776451 7.85826776,0.214136779 C7.77297734,0.0807110324 7.62554167,-1.7118238e-05 7.46718485,-1.91020127e-10 C7.30883404,-1.91020127e-10 7.16123365,0.080773439 7.07581138,0.214136779 C7.00172064,0.329776451 5.25899011,3.08798601 5.25899011,6.5394525 C5.25899011,6.58216364 5.25928066,6.62487477 5.25928066,6.66729536 C3.10832465,4.91933489 0.706622317,4.37484055 0.593597612,4.34985309 C0.560474691,4.34258929 0.527061218,4.33881211 0.493647745,4.33881211 C0.371615931,4.33881211 0.252780187,4.38704373 0.16474295,4.47537152 C0.0525877868,4.58771985 0.00557874583,4.74956683 0.0400961677,4.90451674 C0.0656647383,5.01986586 0.640957579,7.5345929 2.50775379,9.71721907 C1.21799373,9.9763914 0.322512653,10.4433084 0.276895998,10.4671336 C0.124571511,10.5475927 0.029215082,10.7056759 0.0290932945,10.8779444 C0.028971507,11.0502128 0.124104323,11.2084306 0.276314894,11.2891051 C0.34750012,11.3265863 2.04170848,12.2107358 4.15489274,12.2107358 C4.33329163,12.2107358 4.50239285,12.2078303 4.66335863,12.2017287 C4.33300107,12.8476257 4.18336683,13.3148332 4.17494082,13.3412734 C4.12264147,13.5063069 4.16651481,13.6867397 4.28854663,13.8093526 C4.41077245,13.9320019 4.59098058,13.9766622 4.75633525,13.9252828 C4.80950625,13.9087213 5.85229717,13.576911 7.00230174,12.7837042 L7.00230174,14.6438178 C7.00230174,14.7722417 7.10631934,14.8762593 7.23474329,14.8762593 L7.6996264,14.8762593 C7.82805035,14.8762593 7.93206795,14.7722417 7.93206795,14.6438178 L7.93206795,12.7839948 C9.08207253,13.5772016 10.1248634,13.9087213 10.1780344,13.9255734 C10.3433891,13.9769527 10.5235972,13.9322924 10.6458231,13.8096431 C10.7678549,13.6870302 10.8117282,13.5065975 10.7594289,13.341564 C10.7510029,13.3151237 10.6010781,12.8479162 10.2710111,12.2020193 C10.4319768,12.2081208 10.6013686,12.2110264 10.779477,12.2110264 C12.8923707,12.2110264 14.5868696,11.3268768 14.6580548,11.2893956 C14.810304,11.2086222 14.905605,11.0505619 14.9053145,10.8782646 C14.9050239,10.7056768 14.8097229,10.547326 14.6574737,10.4671336 Z" id="Shape"></path>
            </g>
        </g>
    </g>
</svg>