<?xml version="1.0" encoding="UTF-8"?>
<svg width="26px" height="39px" viewBox="0 0 26 39" version="1.1" xmlns="http://www.w3.org/2000/svg" xmlns:xlink="http://www.w3.org/1999/xlink">
    <!-- Generator: Sketch 50.2 (55047) - http://www.bohemiancoding.com/sketch -->
    <title>Untitled</title>
    <desc>Created with Sketch.</desc>
    <defs></defs>
    <g id="Page-1" stroke="none" stroke-width="1" fill="none" fill-rule="evenodd">
        <g id="marker_default" fill-rule="nonzero">
            <path d="M13.27,1 C6.374,1 1,6.27 1,12.946 C1,19.927 13.27,38.69 13.27,38.69 C13.27,38.69 25.537,19.793 25.537,12.946 C25.537,6.28 20.264,1 13.27,1 M13.27,4.382 C18.284,4.382 22.064,8.064 22.064,12.946 C22.064,13.749 21.654,17.119 16.361,26.756 C15.3602428,28.5725266 14.3267407,30.3708202 13.261,32.15 C12.1994246,30.3858526 11.1705819,28.602214 10.175,26.8 C5.028,17.46 4.473,14 4.473,12.946 C4.473,10.616 5.373,8.453 7.006,6.859 C8.643,5.262 10.868,4.382 13.27,4.382" id="Shape" fill="#666666"></path>
            <path d="M12.265,35.392 C8.373,28.977 1.736,17.045 1.736,12.263 C1.736,6.36 6.363,1.736 12.27,1.736 C18.274,1.736 22.8,6.262 22.8,12.263 C22.8,16.953 16.157,28.941 12.265,35.393" id="Shape" fill="#FFFFFF"></path>
            <path d="M12.27,0 C5.374,0 0,5.41 0,12.264 C0,19.431 12.27,38.694 12.27,38.694 C12.27,38.694 24.537,19.294 24.537,12.264 C24.537,5.422 19.264,0 12.27,0 M12.27,3.473 C17.284,3.473 21.064,7.252 21.064,12.263 C21.064,13.088 20.654,16.548 15.361,26.441 C14.3606633,28.3052778 13.3271657,30.1515712 12.261,31.979 C11.1990097,30.1675955 10.1701717,28.3369572 9.175,26.488 C4.028,16.898 3.473,13.346 3.473,12.264 C3.473,9.871 4.373,7.652 6.006,6.015 C7.643,4.375 9.868,3.473 12.27,3.473" id="Shape" fill="#C7515F"></path>
        </g>
        <g id="bed" transform="translate(5.500000, 7.411133)" fill="#000000" fill-rule="nonzero">
            <path d="M3.78497353,4.12906204 C4.73358253,4.12906204 5.50541605,3.35722851 5.50541605,2.40861952 C5.50541605,1.46001053 4.73358253,0.688177006 3.78497353,0.688177006 C2.83636454,0.688177006 2.06453102,1.46001053 2.06453102,2.40861952 C2.06453102,3.35722851 2.83636454,4.12906204 3.78497353,4.12906204 Z M11.3549206,1.37635401 L6.53768156,1.37635401 C6.34757266,1.37635401 6.19359306,1.53033362 6.19359306,1.72044252 L6.19359306,4.81723904 L1.37635401,4.81723904 L1.37635401,0.344088503 C1.37635401,0.153979605 1.22237441,0 1.03226551,0 L0.344088503,0 C0.153979605,0 0,0.153979605 0,0.344088503 L0,7.91403557 C0,8.10414447 0.153979605,8.25812408 0.344088503,8.25812408 L1.03226551,8.25812408 C1.22237441,8.25812408 1.37635401,8.10414447 1.37635401,7.91403557 L1.37635401,6.88177006 L12.3871861,6.88177006 L12.3871861,7.91403557 C12.3871861,8.10414447 12.5411657,8.25812408 12.7312746,8.25812408 L13.4194516,8.25812408 C13.6095605,8.25812408 13.7635401,8.10414447 13.7635401,7.91403557 L13.7635401,3.78497353 C13.7635401,2.45464136 12.6852528,1.37635401 11.3549206,1.37635401 Z" id="Shape"></path>
        </g>
    </g>
</svg>