<?xml version="1.0" encoding="UTF-8"?>
<svg width="26px" height="39px" viewBox="0 0 26 39" version="1.1" xmlns="http://www.w3.org/2000/svg" xmlns:xlink="http://www.w3.org/1999/xlink">
    <!-- Generator: Sketch 50.2 (55047) - http://www.bohemiancoding.com/sketch -->
    <title>Untitled</title>
    <desc>Created with Sketch.</desc>
    <defs></defs>
    <g id="Page-1" stroke="none" stroke-width="1" fill="none" fill-rule="evenodd">
        <g id="marker_default" fill-rule="nonzero">
            <path d="M13.27,1 C6.374,1 1,6.27 1,12.946 C1,19.927 13.27,38.69 13.27,38.69 C13.27,38.69 25.537,19.793 25.537,12.946 C25.537,6.28 20.264,1 13.27,1 M13.27,4.382 C18.284,4.382 22.064,8.064 22.064,12.946 C22.064,13.749 21.654,17.119 16.361,26.756 C15.3602428,28.5725266 14.3267407,30.3708202 13.261,32.15 C12.1994246,30.3858526 11.1705819,28.602214 10.175,26.8 C5.028,17.46 4.473,14 4.473,12.946 C4.473,10.616 5.373,8.453 7.006,6.859 C8.643,5.262 10.868,4.382 13.27,4.382" id="Shape" fill="#666666"></path>
            <path d="M12.265,35.392 C8.373,28.977 1.736,17.045 1.736,12.263 C1.736,6.36 6.363,1.736 12.27,1.736 C18.274,1.736 22.8,6.262 22.8,12.263 C22.8,16.953 16.157,28.941 12.265,35.393" id="Shape" fill="#FFFFFF"></path>
            <path d="M12.27,0 C5.374,0 0,5.41 0,12.264 C0,19.431 12.27,38.694 12.27,38.694 C12.27,38.694 24.537,19.294 24.537,12.264 C24.537,5.422 19.264,0 12.27,0 M12.27,3.473 C17.284,3.473 21.064,7.252 21.064,12.263 C21.064,13.088 20.654,16.548 15.361,26.441 C14.3606633,28.3052778 13.3271657,30.1515712 12.261,31.979 C11.1990097,30.1675955 10.1701717,28.3369572 9.175,26.488 C4.028,16.898 3.473,13.346 3.473,12.264 C3.473,9.871 4.373,7.652 6.006,6.015 C7.643,4.375 9.868,3.473 12.27,3.473" id="Shape" fill="#49B6AD"></path>
        </g>
        <g id="money-bill-alt" transform="translate(5.456543, 7.610547)" fill="#000000" fill-rule="nonzero">
            <path d="M6.90454102,1.72613525 C5.76054488,1.72613525 4.83317871,2.80799052 4.83317871,4.14272461 C4.83317871,5.47724293 5.76054488,6.55931396 6.90454102,6.55931396 C8.04810562,6.55931396 8.97590332,5.47767446 8.97590332,4.14272461 C8.97590332,2.80799052 8.04853716,1.72613525 6.90454102,1.72613525 Z M7.76760864,5.35101929 C7.76760864,5.44638826 7.69036409,5.52363281 7.59499512,5.52363281 L6.21408691,5.52363281 C6.11871794,5.52363281 6.04147339,5.44638826 6.04147339,5.35101929 L6.04147339,5.00579224 C6.04147339,4.91042326 6.11871794,4.83317871 6.21408691,4.83317871 L6.55931396,4.83317871 L6.55931396,3.63696698 L6.54917292,3.64365575 C6.51109898,3.66906596 6.46448426,3.67829547 6.41960024,3.66931057 C6.37471621,3.66032567 6.33524623,3.6338637 6.30988742,3.5957555 L6.11828641,3.30856975 C6.0928762,3.2704958 6.08364669,3.22388109 6.09263159,3.17899706 C6.10161649,3.13411304 6.12807846,3.09464306 6.16618666,3.06928425 L6.49695733,2.84877047 C6.58200091,2.79206657 6.68192888,2.76181039 6.78414308,2.76181641 L7.07715454,2.76181641 C7.17252351,2.76181641 7.24976807,2.83906096 7.24976807,2.93442993 L7.24976807,4.83317871 L7.59499512,4.83317871 C7.69036409,4.83317871 7.76760864,4.91042326 7.76760864,5.00579224 L7.76760864,5.35101929 Z M13.1186279,0 L0.690454102,0 C0.309193977,0 0,0.309193977 0,0.690454102 L0,7.59499512 C0,7.97625524 0.309193977,8.28544922 0.690454102,8.28544922 L13.1186279,8.28544922 C13.4998881,8.28544922 13.809082,7.97625524 13.809082,7.59499512 L13.809082,0.690454102 C13.809082,0.309193977 13.4998881,0 13.1186279,0 Z M12.7734009,5.86885986 C12.0106649,5.86885986 11.3924927,6.48703205 11.3924927,7.24976807 L2.41658936,7.24976807 C2.41658936,6.48703205 1.79841717,5.86885986 1.03568115,5.86885986 L1.03568115,2.41658936 C1.79841717,2.41658936 2.41658936,1.79841717 2.41658936,1.03568115 L11.3924927,1.03568115 C11.3924927,1.79841717 12.0106649,2.41658936 12.7734009,2.41658936 L12.7734009,5.86885986 Z" id="Shape"></path>
        </g>
    </g>
</svg>