<?xml version="1.0" encoding="UTF-8"?>
<svg width="26px" height="39px" viewBox="0 0 26 39" version="1.1" xmlns="http://www.w3.org/2000/svg" xmlns:xlink="http://www.w3.org/1999/xlink">
    <!-- Generator: Sketch 50.2 (55047) - http://www.bohemiancoding.com/sketch -->
    <title>Untitled</title>
    <desc>Created with Sketch.</desc>
    <defs></defs>
    <g id="Page-1" stroke="none" stroke-width="1" fill="none" fill-rule="evenodd">
        <g id="marker_default" fill-rule="nonzero">
            <path d="M13.27,1 C6.374,1 1,6.27 1,12.946 C1,19.927 13.27,38.69 13.27,38.69 C13.27,38.69 25.537,19.793 25.537,12.946 C25.537,6.28 20.264,1 13.27,1 M13.27,4.382 C18.284,4.382 22.064,8.064 22.064,12.946 C22.064,13.749 21.654,17.119 16.361,26.756 C15.3602428,28.5725266 14.3267407,30.3708202 13.261,32.15 C12.1994246,30.3858526 11.1705819,28.602214 10.175,26.8 C5.028,17.46 4.473,14 4.473,12.946 C4.473,10.616 5.373,8.453 7.006,6.859 C8.643,5.262 10.868,4.382 13.27,4.382" id="Shape" fill="#666666"></path>
            <path d="M12.265,35.392 C8.373,28.977 1.736,17.045 1.736,12.263 C1.736,6.36 6.363,1.736 12.27,1.736 C18.274,1.736 22.8,6.262 22.8,12.263 C22.8,16.953 16.157,28.941 12.265,35.393" id="Shape" fill="#FFFFFF"></path>
            <path d="M12.27,0 C5.374,0 0,5.41 0,12.264 C0,19.431 12.27,38.694 12.27,38.694 C12.27,38.694 24.537,19.294 24.537,12.264 C24.537,5.422 19.264,0 12.27,0 M12.27,3.473 C17.284,3.473 21.064,7.252 21.064,12.263 C21.064,13.088 20.654,16.548 15.361,26.441 C14.3606633,28.3052778 13.3271657,30.1515712 12.261,31.979 C11.1990097,30.1675955 10.1701717,28.3369572 9.175,26.488 C4.028,16.898 3.473,13.346 3.473,12.264 C3.473,9.871 4.373,7.652 6.006,6.015 C7.643,4.375 9.868,3.473 12.27,3.473" id="Shape" fill="#D0542B"></path>
        </g>
        <g id="utensils" transform="translate(5.724121, 6.486846)" fill="#000000" fill-rule="nonzero">
            <path d="M5.85715638,0.456401796 C5.87969474,0.588814663 6.31074088,3.11874561 6.31074088,4.0850778 C6.31074088,5.55852311 5.52753286,6.60937416 4.3696246,7.03196841 L4.73305566,13.7399479 C4.75277673,14.1259173 4.44569157,14.4527235 4.05690485,14.4527235 L2.25383603,14.4527235 C1.86786661,14.4527235 1.55796416,14.1287346 1.57768522,13.7399479 L1.94111628,7.03196841 C0.780390725,6.60937416 0,5.55570581 0,4.0850778 C0,3.11592831 0.431046141,0.588814663 0.453584501,0.456401796 C0.543737942,-0.115509097 1.72981915,-0.123960982 1.80306882,0.487392042 L1.80306882,4.46541263 C1.83969366,4.56120067 2.22848037,4.55556608 2.25383603,4.46541263 C2.29327816,3.75263699 2.47640234,0.543737942 2.47921963,0.470488271 C2.57219037,-0.115509097 3.73855051,-0.115509097 3.82870396,0.470488271 C3.83433855,0.546555237 4.01464543,3.75263699 4.05408756,4.46541263 C4.07944321,4.55556608 4.47104722,4.56120067 4.50485477,4.46541263 L4.50485477,0.487392042 C4.57810444,-0.121143687 5.76700294,-0.115509097 5.85715638,0.456401796 Z M9.21537207,8.50541372 L8.79277781,13.7202268 C8.75897027,14.1146481 9.07169002,14.4527235 9.46611133,14.4527235 L11.0437965,14.4527235 C11.4184968,14.4527235 11.7199474,14.151273 11.7199474,13.7765727 L11.7199474,0.704323759 C11.7199474,0.332440814 11.4184968,0.0281729504 11.0437965,0.0281729504 C8.71952814,0.0281729504 4.80630533,5.05704459 9.21537207,8.50541372 Z" id="Shape"></path>
        </g>
    </g>
</svg>