<?xml version="1.0" encoding="UTF-8"?>
<svg width="26px" height="39px" viewBox="0 0 26 39" version="1.1" xmlns="http://www.w3.org/2000/svg" xmlns:xlink="http://www.w3.org/1999/xlink">
    <!-- Generator: Sketch 50.2 (55047) - http://www.bohemiancoding.com/sketch -->
    <title>Untitled</title>
    <desc>Created with Sketch.</desc>
    <defs></defs>
    <g id="Page-1" stroke="none" stroke-width="1" fill="none" fill-rule="evenodd">
        <g id="marker_default" fill-rule="nonzero">
            <path d="M13.27,1 C6.374,1 1,6.27 1,12.946 C1,19.927 13.27,38.69 13.27,38.69 C13.27,38.69 25.537,19.793 25.537,12.946 C25.537,6.28 20.264,1 13.27,1 M13.27,4.382 C18.284,4.382 22.064,8.064 22.064,12.946 C22.064,13.749 21.654,17.119 16.361,26.756 C15.3602428,28.5725266 14.3267407,30.3708202 13.261,32.15 C12.1994246,30.3858526 11.1705819,28.602214 10.175,26.8 C5.028,17.46 4.473,14 4.473,12.946 C4.473,10.616 5.373,8.453 7.006,6.859 C8.643,5.262 10.868,4.382 13.27,4.382" id="Shape" fill="#666666"></path>
            <path d="M12.265,35.392 C8.373,28.977 1.736,17.045 1.736,12.263 C1.736,6.36 6.363,1.736 12.27,1.736 C18.274,1.736 22.8,6.262 22.8,12.263 C22.8,16.953 16.157,28.941 12.265,35.393" id="Shape" fill="#FFFFFF"></path>
            <path d="M12.27,0 C5.374,0 0,5.41 0,12.264 C0,19.431 12.27,38.694 12.27,38.694 C12.27,38.694 24.537,19.294 24.537,12.264 C24.537,5.422 19.264,0 12.27,0 M12.27,3.473 C17.284,3.473 21.064,7.252 21.064,12.263 C21.064,13.088 20.654,16.548 15.361,26.441 C14.3606633,28.3052778 13.3271657,30.1515712 12.261,31.979 C11.1990097,30.1675955 10.1701717,28.3369572 9.175,26.488 C4.028,16.898 3.473,13.346 3.473,12.264 C3.473,9.871 4.373,7.652 6.006,6.015 C7.643,4.375 9.868,3.473 12.27,3.473" id="Shape" fill="#6684CC"></path>
            <g id="graduation-cap" transform="translate(4.768500, 6.136292)" fill="#000000">
                <path d="M14.5540993,2.10942533 L8.03078333,0.105237405 C7.67531477,-0.00397563531 7.29178289,-0.00397563531 6.93654818,0.105237405 L0.412998351,2.10942533 C-0.13751021,2.27850676 -0.13751021,3.00651574 0.412998351,3.17559717 L1.55026391,3.52498536 C1.30073433,3.83344789 1.14732158,4.20973008 1.13212062,4.62179298 C0.906912573,4.7508842 0.748354883,4.98380966 0.748354883,5.26187027 C0.748354883,5.51397232 0.881187874,5.72608416 1.07248609,5.86172348 L0.475439211,8.54831751 C0.423522091,8.78194455 0.601256376,9.00364468 0.840496078,9.00364468 L2.15268959,9.00364468 C2.39216315,9.00364468 2.56989744,8.78194455 2.51798032,8.54831751 L1.92093344,5.86172348 C2.11223166,5.72608416 2.24506465,5.51397232 2.24506465,5.26187027 C2.24506465,4.99129321 2.09375665,4.76491585 1.87883848,4.63348603 C1.89661191,4.28222695 2.07621708,3.97165968 2.36269668,3.7747488 L6.93631432,5.18001895 C7.14819229,5.24503228 7.55464254,5.32618202 8.03054947,5.18001895 L14.5540993,3.17583103 C15.1048417,3.00651574 15.1048417,2.27874062 14.5540993,2.10942533 Z M8.25037872,5.89539945 C7.58317357,6.1002616 7.01465772,5.98707292 6.71648507,5.89539945 L3.32503429,4.85354914 L2.99341953,7.50693492 C2.99341953,8.3336332 5.00368783,9.00364468 7.48354883,9.00364468 C9.96340982,9.00364468 11.9736781,8.3336332 11.9736781,7.50693492 L11.6420634,4.85331527 L8.25037872,5.89539945 Z" id="Shape"></path>
            </g>
        </g>
    </g>
</svg>