<?xml version="1.0" encoding="UTF-8"?>
<svg width="26px" height="39px" viewBox="0 0 26 39" version="1.1" xmlns="http://www.w3.org/2000/svg" xmlns:xlink="http://www.w3.org/1999/xlink">
    <!-- Generator: Sketch 50.2 (55047) - http://www.bohemiancoding.com/sketch -->
    <title>Untitled</title>
    <desc>Created with Sketch.</desc>
    <defs></defs>
    <g id="Page-1" stroke="none" stroke-width="1" fill="none" fill-rule="evenodd">
        <g id="marker_default" fill-rule="nonzero">
            <path d="M13.27,1 C6.374,1 1,6.27 1,12.946 C1,19.927 13.27,38.69 13.27,38.69 C13.27,38.69 25.537,19.793 25.537,12.946 C25.537,6.28 20.264,1 13.27,1 M13.27,4.382 C18.284,4.382 22.064,8.064 22.064,12.946 C22.064,13.749 21.654,17.119 16.361,26.756 C15.3602428,28.5725266 14.3267407,30.3708202 13.261,32.15 C12.1994246,30.3858526 11.1705819,28.602214 10.175,26.8 C5.028,17.46 4.473,14 4.473,12.946 C4.473,10.616 5.373,8.453 7.006,6.859 C8.643,5.262 10.868,4.382 13.27,4.382" id="Shape" fill="#666666"></path>
            <path d="M12.265,35.392 C8.373,28.977 1.736,17.045 1.736,12.263 C1.736,6.36 6.363,1.736 12.27,1.736 C18.274,1.736 22.8,6.262 22.8,12.263 C22.8,16.953 16.157,28.941 12.265,35.393" id="Shape" fill="#FFFFFF"></path>
            <path d="M12.27,0 C5.374,0 0,5.41 0,12.264 C0,19.431 12.27,38.694 12.27,38.694 C12.27,38.694 24.537,19.294 24.537,12.264 C24.537,5.422 19.264,0 12.27,0 M12.27,3.473 C17.284,3.473 21.064,7.252 21.064,12.263 C21.064,13.088 20.654,16.548 15.361,26.441 C14.3606633,28.3052778 13.3271657,30.1515712 12.261,31.979 C11.1990097,30.1675955 10.1701717,28.3369572 9.175,26.488 C4.028,16.898 3.473,13.346 3.473,12.264 C3.473,9.871 4.373,7.652 6.006,6.015 C7.643,4.375 9.868,3.473 12.27,3.473" id="Shape" fill="#C578AD"></path>
        </g>
        <g id="lightbulb" transform="translate(6.362793, 5.067982)" fill="#F45700" fill-rule="nonzero">
            <path d="M8.48176066,14.1804436 L8.48176066,15.1081362 C8.48176066,15.4543312 8.26043972,15.7487079 7.95165062,15.8578774 L7.95165062,16.1683563 C7.95165062,16.6075193 7.59564859,16.9635213 7.15648556,16.9635213 L4.50593535,16.9635213 C4.06677231,16.9635213 3.71077029,16.6075193 3.71077029,16.1683563 L3.71077029,15.8578774 C3.40198119,15.7487079 3.18066025,15.4543312 3.18066025,15.1081362 L3.18066025,14.1804436 C3.18066025,13.9608787 3.35867783,13.7828611 3.57824278,13.7828611 L8.08417813,13.7828611 C8.30374308,13.7828611 8.48176066,13.9608787 8.48176066,14.1804436 Z M3.74035706,12.722641 C3.41211954,12.722641 3.11661633,12.5212654 2.99899816,12.2148287 C1.71281868,8.86413566 0,9.20174949 0,5.83121045 C0,2.61089135 2.61095761,0 5.83121045,0 C9.0514633,0 11.6624209,2.61089135 11.6624209,5.83121045 C11.6624209,9.20174949 9.94960223,8.86413566 8.66345588,12.2148287 C8.54583771,12.5212654 8.25030136,12.722641 7.92209698,12.722641 L3.74035706,12.722641 Z M3.18066025,5.83121045 C3.18066025,4.36969707 4.36969707,3.18066025 5.83121045,3.18066025 C6.12399686,3.18066025 6.3613205,2.94330348 6.3613205,2.65055021 C6.3613205,2.35779694 6.12399686,2.12044017 5.83121045,2.12044017 C3.78508509,2.12044017 2.12044017,3.78508509 2.12044017,5.83121045 C2.12044017,6.12396372 2.35779694,6.3613205 2.65055021,6.3613205 C2.94330348,6.3613205 3.18066025,6.12396372 3.18066025,5.83121045 Z" id="Shape"></path>
        </g>
    </g>
</svg>