<?xml version="1.0" encoding="UTF-8"?>
<svg width="26px" height="39px" viewBox="0 0 26 39" version="1.1" xmlns="http://www.w3.org/2000/svg" xmlns:xlink="http://www.w3.org/1999/xlink">
    <!-- Generator: Sketch 50.2 (55047) - http://www.bohemiancoding.com/sketch -->
    <title>Untitled</title>
    <desc>Created with Sketch.</desc>
    <defs></defs>
    <g id="Page-1" stroke="none" stroke-width="1" fill="none" fill-rule="evenodd">
        <g id="marker_default" fill-rule="nonzero">
            <path d="M13.27,1 C6.374,1 1,6.27 1,12.946 C1,19.927 13.27,38.69 13.27,38.69 C13.27,38.69 25.537,19.793 25.537,12.946 C25.537,6.28 20.264,1 13.27,1 M13.27,4.382 C18.284,4.382 22.064,8.064 22.064,12.946 C22.064,13.749 21.654,17.119 16.361,26.756 C15.3602428,28.5725266 14.3267407,30.3708202 13.261,32.15 C12.1994246,30.3858526 11.1705819,28.602214 10.175,26.8 C5.028,17.46 4.473,14 4.473,12.946 C4.473,10.616 5.373,8.453 7.006,6.859 C8.643,5.262 10.868,4.382 13.27,4.382" id="Shape" fill="#666666"></path>
            <path d="M12.265,35.392 C8.373,28.977 1.736,17.045 1.736,12.263 C1.736,6.36 6.363,1.736 12.27,1.736 C18.274,1.736 22.8,6.262 22.8,12.263 C22.8,16.953 16.157,28.941 12.265,35.393" id="Shape" fill="#FFFFFF"></path>
            <path d="M12.27,0 C5.374,0 0,5.41 0,12.264 C0,19.431 12.27,38.694 12.27,38.694 C12.27,38.694 24.537,19.294 24.537,12.264 C24.537,5.422 19.264,0 12.27,0 M12.27,3.473 C17.284,3.473 21.064,7.252 21.064,12.263 C21.064,13.088 20.654,16.548 15.361,26.441 C14.3606633,28.3052778 13.3271657,30.1515712 12.261,31.979 C11.1990097,30.1675955 10.1701717,28.3369572 9.175,26.488 C4.028,16.898 3.473,13.346 3.473,12.264 C3.473,9.871 4.373,7.652 6.006,6.015 C7.643,4.375 9.868,3.473 12.27,3.473" id="Shape" fill="#B2A639"></path>
            <g id="church" transform="translate(5.268500, 4.376047)" fill="#000000">
                <path d="M10.1203468,5.49258029 L7.7411921,4.06500284 L7.7411921,2.98183797 L8.75665917,2.98183797 C8.94367436,2.98183797 9.09514819,2.83036413 9.09514819,2.64334894 L9.09514819,1.9663709 C9.09514819,1.77935571 8.94367436,1.62788187 8.75665917,1.62788187 L7.7411921,1.62788187 L7.7411921,0.612414804 C7.7411921,0.425399619 7.58971826,0.273925781 7.40270308,0.273925781 L6.72572503,0.273925781 C6.53870985,0.273925781 6.38723601,0.425399619 6.38723601,0.612414804 L6.38723601,1.62788187 L5.37176894,1.62788187 C5.18475375,1.62788187 5.03327992,1.77935571 5.03327992,1.9663709 L5.03327992,2.64334894 C5.03327992,2.83036413 5.18475375,2.98183797 5.37176894,2.98183797 L6.38723601,2.98183797 L6.38723601,4.06500284 L4.00808129,5.49258029 C3.80412965,5.6148975 3.67932674,5.83527019 3.67932382,6.07308897 L3.67932382,11.1055745 L5.71025796,11.1055745 L5.71025796,9.07464038 C5.71025796,8.3267912 6.31636487,7.72068429 7.06421405,7.72068429 C7.81206324,7.72068429 8.41817015,8.3267912 8.41817015,9.07464038 L8.41817015,11.1055745 L10.4491043,11.1055745 L10.4491043,6.07308897 C10.4491043,5.83530043 10.3242865,5.61485945 10.1203468,5.49258029 Z M0.294433594,8.65068288 L0.294433594,10.7670855 C0.294433594,10.9541007 0.445907432,11.1055745 0.632922617,11.1055745 L3.00234578,11.1055745 L3.00234578,7.04370624 L0.704639979,8.02828619 C0.45580171,8.13512265 0.294488521,8.37987943 0.294433594,8.65068288 Z M13.4237881,8.02828619 L11.1260823,7.04370624 L11.1260823,11.1055745 L13.4955055,11.1055745 C13.6825207,11.1055745 13.8339945,10.9541007 13.8339945,10.7670855 L13.8339945,8.65068288 C13.8339945,8.37989166 13.6725776,8.13512179 13.4237881,8.02828619 Z" id="Shape"></path>
            </g>
        </g>
    </g>
</svg>