<?xml version="1.0" encoding="UTF-8"?>
<svg width="26px" height="39px" viewBox="0 0 26 39" version="1.1" xmlns="http://www.w3.org/2000/svg" xmlns:xlink="http://www.w3.org/1999/xlink">
    <!-- Generator: Sketch 50.2 (55047) - http://www.bohemiancoding.com/sketch -->
    <title>Untitled</title>
    <desc>Created with Sketch.</desc>
    <defs></defs>
    <g id="Page-1" stroke="none" stroke-width="1" fill="none" fill-rule="evenodd">
        <g id="marker_default" fill-rule="nonzero">
            <path d="M13.27,1 C6.374,1 1,6.27 1,12.946 C1,19.927 13.27,38.69 13.27,38.69 C13.27,38.69 25.537,19.793 25.537,12.946 C25.537,6.28 20.264,1 13.27,1 M13.27,4.382 C18.284,4.382 22.064,8.064 22.064,12.946 C22.064,13.749 21.654,17.119 16.361,26.756 C15.3602428,28.5725266 14.3267407,30.3708202 13.261,32.15 C12.1994246,30.3858526 11.1705819,28.602214 10.175,26.8 C5.028,17.46 4.473,14 4.473,12.946 C4.473,10.616 5.373,8.453 7.006,6.859 C8.643,5.262 10.868,4.382 13.27,4.382" id="Shape" fill="#666666"></path>
            <path d="M12.265,35.392 C8.373,28.977 1.736,17.045 1.736,12.263 C1.736,6.36 6.363,1.736 12.27,1.736 C18.274,1.736 22.8,6.262 22.8,12.263 C22.8,16.953 16.157,28.941 12.265,35.393" id="Shape" fill="#FFFFFF"></path>
            <path d="M12.27,0 C5.374,0 0,5.41 0,12.264 C0,19.431 12.27,38.694 12.27,38.694 C12.27,38.694 24.537,19.294 24.537,12.264 C24.537,5.422 19.264,0 12.27,0 M12.27,3.473 C17.284,3.473 21.064,7.252 21.064,12.263 C21.064,13.088 20.654,16.548 15.361,26.441 C14.3606633,28.3052778 13.3271657,30.1515712 12.261,31.979 C11.1990097,30.1675955 10.1701717,28.3369572 9.175,26.488 C4.028,16.898 3.473,13.346 3.473,12.264 C3.473,9.871 4.373,7.652 6.006,6.015 C7.643,4.375 9.868,3.473 12.27,3.473" id="Shape" fill="#4F7533"></path>
            <g id="walking" transform="translate(6.768000, 4.573146)" fill="#000000">
                <path d="M7.36454668,3.49217058 C8.22070249,3.49217058 8.91531947,2.7975536 8.91531947,1.94139779 C8.91531947,1.08524198 8.22070249,0.390625 7.36454668,0.390625 C6.50839087,0.390625 5.81377389,1.08524198 5.81377389,1.94139779 C5.81377389,2.7975536 6.50839087,3.49217058 7.36454668,3.49217058 Z M10.4176306,8.30925857 L9.66485965,7.92802692 L9.35147432,6.97817859 C8.87655015,5.5372522 7.55193173,4.52924989 6.04962058,4.52601911 C4.88654099,4.52278833 4.24361644,4.85232755 3.03530597,5.34017483 C2.33745821,5.6212524 1.76561075,6.15433054 1.42960998,6.83279364 L1.21314794,7.27217926 C0.961147362,7.78264197 1.16468629,8.40295109 1.67191822,8.65818245 C2.17591938,8.9134138 2.78976695,8.7066441 3.0449983,8.19618138 L3.26146034,7.75679576 C3.37453752,7.53064139 3.56192256,7.35294868 3.79453848,7.25925616 L4.66038663,6.91033228 L4.16930857,8.8714137 C4.00130819,9.54341525 4.18223168,10.2574169 4.6506943,10.7711104 L6.58592951,12.8840383 C6.81854543,13.1392697 6.98331504,13.4461934 7.06731523,13.7789634 L7.65854736,16.1471227 C7.79747075,16.6995855 8.35962589,17.0388171 8.9120887,16.8998937 C9.4645515,16.7609703 9.80378305,16.1988151 9.66485965,15.6463523 L8.94762724,12.7709611 C8.86362705,12.4381911 8.69885744,12.1280366 8.46624152,11.876036 L6.99623814,10.27034 L7.55193173,8.05079644 L7.72962444,8.58387458 C7.9008556,9.10402962 8.26916414,9.53372292 8.75378064,9.77926194 L9.5065516,10.1604936 C10.0105528,10.4157249 10.6244003,10.2089552 10.8796317,9.69849253 C11.1284015,9.19126059 10.9248625,8.56448992 10.4176306,8.30925857 Z M3.02238286,12.8549613 C2.91899801,13.1166542 2.76392073,13.3525009 2.56361258,13.5495783 L0.948224255,15.1681974 C0.544377174,15.5720445 0.544377174,16.2278921 0.948224255,16.6317392 C1.35207134,17.0355863 2.00468822,17.0355863 2.4085353,16.6317392 L4.32761663,14.7126579 C4.52469401,14.5155805 4.67977128,14.2797338 4.78638691,14.0180409 L5.22254176,12.9260384 C3.43592227,10.9778801 3.9722312,11.5755738 3.69115363,11.1911113 L3.02238286,12.8549613 Z" id="Shape"></path>
            </g>
        </g>
    </g>
</svg>