<?xml version="1.0" encoding="UTF-8"?>
<svg width="26px" height="39px" viewBox="0 0 26 39" version="1.1" xmlns="http://www.w3.org/2000/svg" xmlns:xlink="http://www.w3.org/1999/xlink">
    <!-- Generator: Sketch 50.2 (55047) - http://www.bohemiancoding.com/sketch -->
    <title>Untitled</title>
    <desc>Created with Sketch.</desc>
    <defs></defs>
    <g id="Page-1" stroke="none" stroke-width="1" fill="none" fill-rule="evenodd">
        <g id="marker_default" fill-rule="nonzero">
            <path d="M13.27,1 C6.374,1 1,6.27 1,12.946 C1,19.927 13.27,38.69 13.27,38.69 C13.27,38.69 25.537,19.793 25.537,12.946 C25.537,6.28 20.264,1 13.27,1 M13.27,4.382 C18.284,4.382 22.064,8.064 22.064,12.946 C22.064,13.749 21.654,17.119 16.361,26.756 C15.3602428,28.5725266 14.3267407,30.3708202 13.261,32.15 C12.1994246,30.3858526 11.1705819,28.602214 10.175,26.8 C5.028,17.46 4.473,14 4.473,12.946 C4.473,10.616 5.373,8.453 7.006,6.859 C8.643,5.262 10.868,4.382 13.27,4.382" id="Shape" fill="#666666"></path>
            <path d="M12.265,35.392 C8.373,28.977 1.736,17.045 1.736,12.263 C1.736,6.36 6.363,1.736 12.27,1.736 C18.274,1.736 22.8,6.262 22.8,12.263 C22.8,16.953 16.157,28.941 12.265,35.393" id="Shape" fill="#FFFFFF"></path>
            <path d="M12.27,0 C5.374,0 0,5.41 0,12.264 C0,19.431 12.27,38.694 12.27,38.694 C12.27,38.694 24.537,19.294 24.537,12.264 C24.537,5.422 19.264,0 12.27,0 M12.27,3.473 C17.284,3.473 21.064,7.252 21.064,12.263 C21.064,13.088 20.654,16.548 15.361,26.441 C14.3606633,28.3052778 13.3271657,30.1515712 12.261,31.979 C11.1990097,30.1675955 10.1701717,28.3369572 9.175,26.488 C4.028,16.898 3.473,13.346 3.473,12.264 C3.473,9.871 4.373,7.652 6.006,6.015 C7.643,4.375 9.868,3.473 12.27,3.473" id="Shape" fill="#DB943C"></path>
        </g>
        <g id="palette" transform="translate(5.523438, 4.387939)" fill="#000000" fill-rule="nonzero">
            <path d="M5.54293147,0.162788002 C2.8460769,0.689135876 0.672857076,2.85692944 0.141082935,5.54564461 C-0.862776411,10.619204 3.71427958,14.4013119 7.16267209,13.8668246 C8.28048304,13.6931841 8.82853598,12.3854538 8.31575378,11.3788813 C7.68901997,10.1471188 8.58435398,8.70915811 9.968052,8.70915811 L12.1304193,8.70915811 C13.101721,8.70915811 13.8885297,7.90607064 13.8912428,6.93748202 C13.8776772,2.66158383 9.98704393,-0.702701543 5.54293147,0.162788002 Z M2.60460803,8.70915811 C2.12438343,8.70915811 1.73640536,8.32118004 1.73640536,7.84095544 C1.73640536,7.36073083 2.12438343,6.97275276 2.60460803,6.97275276 C3.08483264,6.97275276 3.47281071,7.36073083 3.47281071,7.84095544 C3.47281071,8.32118004 3.08483264,8.70915811 2.60460803,8.70915811 Z M3.47281071,5.2363474 C2.99258611,5.2363474 2.60460803,4.84836933 2.60460803,4.36814472 C2.60460803,3.88792012 2.99258611,3.49994205 3.47281071,3.49994205 C3.95303532,3.49994205 4.34101339,3.88792012 4.34101339,4.36814472 C4.34101339,4.84836933 3.95303532,5.2363474 3.47281071,5.2363474 Z M6.94562142,3.49994205 C6.46539682,3.49994205 6.07741875,3.11196397 6.07741875,2.63173937 C6.07741875,2.15151476 6.46539682,1.76353669 6.94562142,1.76353669 C7.42584603,1.76353669 7.8138241,2.15151476 7.8138241,2.63173937 C7.8138241,3.11196397 7.42584603,3.49994205 6.94562142,3.49994205 Z M10.4184321,5.2363474 C9.93820753,5.2363474 9.55022946,4.84836933 9.55022946,4.36814472 C9.55022946,3.88792012 9.93820753,3.49994205 10.4184321,3.49994205 C10.8986567,3.49994205 11.2866348,3.88792012 11.2866348,4.36814472 C11.2866348,4.84836933 10.8986567,5.2363474 10.4184321,5.2363474 Z" id="Shape"></path>
        </g>
    </g>
</svg>