<?xml version="1.0" encoding="UTF-8"?>
<svg width="26px" height="39px" viewBox="0 0 26 39" version="1.1" xmlns="http://www.w3.org/2000/svg" xmlns:xlink="http://www.w3.org/1999/xlink">
    <!-- Generator: Sketch 50.2 (55047) - http://www.bohemiancoding.com/sketch -->
    <title>Untitled</title>
    <desc>Created with Sketch.</desc>
    <defs></defs>
    <g id="Page-1" stroke="none" stroke-width="1" fill="none" fill-rule="evenodd">
        <g id="marker_default" fill-rule="nonzero">
            <path d="M13.27,1 C6.374,1 1,6.27 1,12.946 C1,19.927 13.27,38.69 13.27,38.69 C13.27,38.69 25.537,19.793 25.537,12.946 C25.537,6.28 20.264,1 13.27,1 M13.27,4.382 C18.284,4.382 22.064,8.064 22.064,12.946 C22.064,13.749 21.654,17.119 16.361,26.756 C15.3602428,28.5725266 14.3267407,30.3708202 13.261,32.15 C12.1994246,30.3858526 11.1705819,28.602214 10.175,26.8 C5.028,17.46 4.473,14 4.473,12.946 C4.473,10.616 5.373,8.453 7.006,6.859 C8.643,5.262 10.868,4.382 13.27,4.382" id="Shape" fill="#666666"></path>
            <path d="M12.265,35.392 C8.373,28.977 1.736,17.045 1.736,12.263 C1.736,6.36 6.363,1.736 12.27,1.736 C18.274,1.736 22.8,6.262 22.8,12.263 C22.8,16.953 16.157,28.941 12.265,35.393" id="Shape" fill="#FFFFFF"></path>
            <path d="M12.27,0 C5.374,0 0,5.41 0,12.264 C0,19.431 12.27,38.694 12.27,38.694 C12.27,38.694 24.537,19.294 24.537,12.264 C24.537,5.422 19.264,0 12.27,0 M12.27,3.473 C17.284,3.473 21.064,7.252 21.064,12.263 C21.064,13.088 20.654,16.548 15.361,26.441 C14.3606633,28.3052778 13.3271657,30.1515712 12.261,31.979 C11.1990097,30.1675955 10.1701717,28.3369572 9.175,26.488 C4.028,16.898 3.473,13.346 3.473,12.264 C3.473,9.871 4.373,7.652 6.006,6.015 C7.643,4.375 9.868,3.473 12.27,3.473" id="Shape" fill="#96AF69"></path>
            <g id="shopping-cart" transform="translate(4.472553, 7.321289)" fill="#000000">
                <path d="M13.1614585,7.38699484 L14.2608925,2.5495131 C14.340269,2.20023762 14.074789,1.86763749 13.716606,1.86763749 L4.58162641,1.86763749 L4.36845161,0.825485775 C4.31533234,0.56572696 4.08676133,0.37918157 3.82160686,0.37918157 L1.43707722,0.37918157 C1.12880404,0.37918157 0.87890625,0.629079365 0.87890625,0.937352541 L0.87890625,1.30946652 C0.87890625,1.6177397 1.12880404,1.86763749 1.43707722,1.86763749 L3.0623548,1.86763749 L4.69612123,9.85494779 C4.30526201,10.0797279 4.04187508,10.5011935 4.04187508,10.98443 C4.04187508,11.7037263 4.62497769,12.2868289 5.34427401,12.2868289 C6.06357034,12.2868289 6.64667294,11.7037263 6.64667294,10.98443 C6.64667294,10.6198978 6.49673427,10.2905537 6.25539509,10.0541451 L11.1311813,10.0541451 C10.8898654,10.2905537 10.7399267,10.6198978 10.7399267,10.98443 C10.7399267,11.7037263 11.3230293,12.2868289 12.0423257,12.2868289 C12.761622,12.2868289 13.3447246,11.7037263 13.3447246,10.98443 C13.3447246,10.4687731 13.0449868,10.0231666 12.6102879,9.81215468 L12.7385974,9.24756475 C12.817974,8.89828926 12.5524939,8.56568913 12.194311,8.56568913 L5.95168031,8.56568913 L5.79946244,7.82146117 L12.617172,7.82146117 C12.8777913,7.82146117 13.103711,7.64112544 13.1614585,7.38699484 Z" id="Shape"></path>
            </g>
        </g>
    </g>
</svg>