<?xml version="1.0" encoding="UTF-8"?>
<svg width="26px" height="39px" viewBox="0 0 26 39" version="1.1" xmlns="http://www.w3.org/2000/svg" xmlns:xlink="http://www.w3.org/1999/xlink">
    <!-- Generator: Sketch 50.2 (55047) - http://www.bohemiancoding.com/sketch -->
    <title>Untitled</title>
    <desc>Created with Sketch.</desc>
    <defs></defs>
    <g id="Page-1" stroke="none" stroke-width="1" fill="none" fill-rule="evenodd">
        <g id="marker_default" fill-rule="nonzero">
            <path d="M13.27,1 C6.374,1 1,6.27 1,12.946 C1,19.927 13.27,38.69 13.27,38.69 C13.27,38.69 25.537,19.793 25.537,12.946 C25.537,6.28 20.264,1 13.27,1 M13.27,4.382 C18.284,4.382 22.064,8.064 22.064,12.946 C22.064,13.749 21.654,17.119 16.361,26.756 C15.3602428,28.5725266 14.3267407,30.3708202 13.261,32.15 C12.1994246,30.3858526 11.1705819,28.602214 10.175,26.8 C5.028,17.46 4.473,14 4.473,12.946 C4.473,10.616 5.373,8.453 7.006,6.859 C8.643,5.262 10.868,4.382 13.27,4.382" id="Shape" fill="#666666"></path>
            <path d="M12.265,35.392 C8.373,28.977 1.736,17.045 1.736,12.263 C1.736,6.36 6.363,1.736 12.27,1.736 C18.274,1.736 22.8,6.262 22.8,12.263 C22.8,16.953 16.157,28.941 12.265,35.393" id="Shape" fill="#FFFFFF"></path>
            <path d="M12.27,0 C5.374,0 0,5.41 0,12.264 C0,19.431 12.27,38.694 12.27,38.694 C12.27,38.694 24.537,19.294 24.537,12.264 C24.537,5.422 19.264,0 12.27,0 M12.27,3.473 C17.284,3.473 21.064,7.252 21.064,12.263 C21.064,13.088 20.654,16.548 15.361,26.441 C14.3606633,28.3052778 13.3271657,30.1515712 12.261,31.979 C11.1990097,30.1675955 10.1701717,28.3369572 9.175,26.488 C4.028,16.898 3.473,13.346 3.473,12.264 C3.473,9.871 4.373,7.652 6.006,6.015 C7.643,4.375 9.868,3.473 12.27,3.473" id="Shape" fill="#AE7447"></path>
        </g>
        <g id="briefcase-medical" transform="translate(5.331299, 4.755290)" fill="#000000" fill-rule="nonzero">
            <path d="M12.489441,2.58402227 L10.3360891,2.58402227 L10.3360891,1.29201113 C10.3360891,0.578713321 9.75737576,0 9.04407794,0 L4.73737416,0 C4.02407635,0 3.44536303,0.578713321 3.44536303,1.29201113 L3.44536303,2.58402227 L1.29201113,2.58402227 C0.578713321,2.58402227 0,3.16273559 0,3.8760334 L0,11.6281002 C0,12.341398 0.578713321,12.9201113 1.29201113,12.9201113 L12.489441,12.9201113 C13.2027388,12.9201113 13.7814521,12.341398 13.7814521,11.6281002 L13.7814521,3.8760334 C13.7814521,3.16273559 13.2027388,2.58402227 12.489441,2.58402227 Z M5.16804454,1.72268151 L8.61340756,1.72268151 L8.61340756,2.58402227 L5.16804454,2.58402227 L5.16804454,1.72268151 Z M9.47474832,8.39807238 C9.47474832,8.51650673 9.37784749,8.61340756 9.25941313,8.61340756 L7.75206681,8.61340756 L7.75206681,10.1207539 C7.75206681,10.2391882 7.65516597,10.3360891 7.53673162,10.3360891 L6.24472048,10.3360891 C6.12628613,10.3360891 6.0293853,10.2391882 6.0293853,10.1207539 L6.0293853,8.61340756 L4.52203897,8.61340756 C4.40360462,8.61340756 4.30670378,8.51650673 4.30670378,8.39807238 L4.30670378,7.10606124 C4.30670378,6.98762689 4.40360462,6.89072605 4.52203897,6.89072605 L6.0293853,6.89072605 L6.0293853,5.38337973 C6.0293853,5.26494537 6.12628613,5.16804454 6.24472048,5.16804454 L7.53673162,5.16804454 C7.65516597,5.16804454 7.75206681,5.26494537 7.75206681,5.38337973 L7.75206681,6.89072605 L9.25941313,6.89072605 C9.37784749,6.89072605 9.47474832,6.98762689 9.47474832,7.10606124 L9.47474832,8.39807238 Z" id="Shape"></path>
        </g>
    </g>
</svg>