<?xml version="1.0" standalone="no"?>
<!DOCTYPE svg PUBLIC "-//W3C//DTD SVG 20010904//EN"
 "http://www.w3.org/TR/2001/REC-SVG-20010904/DTD/svg10.dtd">
<svg version="1.0" xmlns="http://www.w3.org/2000/svg"
 width="156.000000pt" height="156.000000pt" viewBox="0 0 156.000000 156.000000"
 preserveAspectRatio="xMidYMid meet">
<metadata>
Created by potrace 1.11, written by Peter Selinger 2001-2013
</metadata>
<g transform="translate(0.000000,156.000000) scale(0.100000,-0.100000)"
fill="#000000" stroke="none">
<path d="M633 1546 c-226 -55 -391 -279 -371 -504 15 -159 172 -504 411 -902
81 -136 76 -128 88 -110 8 13 10 13 18 0 6 -8 12 -12 15 -9 27 26 247 413 321
564 178 361 200 487 115 667 -40 86 -163 209 -254 255 -97 49 -235 65 -343 39z
m268 -158 c153 -70 231 -243 185 -409 -21 -72 -83 -223 -138 -333 -58 -118
-191 -356 -197 -356 -7 0 -143 243 -201 358 -56 114 -125 286 -140 351 -26
110 4 222 80 305 81 87 154 117 275 113 60 -2 94 -10 136 -29z"/>
<path d="M695 1200 c-69 -28 -96 -127 -53 -190 28 -41 89 -67 133 -56 15 4 43
22 61 40 42 42 51 78 33 130 -24 69 -106 105 -174 76z"/>
</g>
</svg>
